<?xml version="1.0" encoding="UTF-8"?>
<!-- Generator: Adobe Illustrator 27.5.0, SVG Export Plug-In . SVG Version: 6.00 Build 0)  -->
<svg xmlns="http://www.w3.org/2000/svg" xmlns:xlink="http://www.w3.org/1999/xlink" version="1.1" id="Layer_1" x="0px" y="0px" viewBox="0 0 329.7 36.2" style="enable-background:new 0 0 329.7 36.2;" xml:space="preserve">
<style type="text/css">
	.st0{fill:#FFFFFF;}
</style>
<g>
	<path class="st0" d="M139.6,10.2h-6.2v3.3h7.1v2.3h-9.7V3h9.4v2.3h-6.8v2.7h6.2V10.2z"></path>
	<path class="st0" d="M149.2,11.9V3h2.7v8.9c0,1.1-0.2,1.9-0.6,2.6c-0.6,1.1-1.8,1.6-3.4,1.6c-1.7,0-2.8-0.4-3.3-1.3   c-0.6-0.9-0.8-2.1-0.8-3.6v-0.3h2.5v0.3c0,1,0.1,1.7,0.3,2.1c0.2,0.4,0.6,0.6,1.2,0.6c0.6,0,1-0.2,1.2-0.7   C149.2,13,149.2,12.5,149.2,11.9z"></path>
	<path class="st0" d="M167,15.7h-2.7l-5.2-9.1v9.1h-2.5V3h2.8l5.1,8.9V3h2.5V15.7z"></path>
	<path class="st0" d="M179.1,13.1h-4.7l-0.9,2.6h-2.8L175.3,3h3l4.5,12.8H180L179.1,13.1z M178.4,10.9l-1.6-5l-1.6,5H178.4z"></path>
	<path class="st0" d="M192,10.7h-2.8v5h-2.6V3h6.3c0.9,0,1.6,0.1,2.1,0.3c0.5,0.2,0.9,0.5,1.2,0.9c0.3,0.3,0.5,0.7,0.7,1.1   c0.2,0.4,0.2,0.8,0.2,1.3c0,0.6-0.2,1.2-0.5,1.8c-0.3,0.6-0.8,1-1.5,1.2c0.6,0.2,1,0.6,1.3,1c0.2,0.4,0.4,1.1,0.4,2v0.9   c0,0.6,0,1,0.1,1.2c0.1,0.3,0.2,0.6,0.5,0.7v0.3h-2.9c-0.1-0.3-0.1-0.5-0.2-0.7c-0.1-0.4-0.1-0.7-0.1-1.1l0-1.2   c0-0.8-0.2-1.4-0.4-1.6C193.4,10.9,192.8,10.7,192,10.7z M193.7,8.4c0.5-0.2,0.8-0.7,0.8-1.4c0-0.8-0.3-1.3-0.8-1.6   c-0.3-0.2-0.7-0.2-1.3-0.2h-3.1v3.4h3C192.9,8.6,193.4,8.5,193.7,8.4z"></path>
	<path class="st0" d="M211.1,15.7h-2.5V3h3.9l2.3,10l2.3-10h3.8v12.8h-2.5V7.1c0-0.2,0-0.6,0-1c0-0.4,0-0.8,0-1l-2.4,10.7h-2.6   L211.1,5c0,0.2,0,0.6,0,1c0,0.4,0,0.8,0,1V15.7z"></path>
	<path class="st0" d="M225.4,3h2.7v12.8h-2.7V3z"></path>
	<path class="st0" d="M244,15.7h-3.4l-3.9-5.6l-1.3,1.3v4.3h-2.6V3h2.6v5.3l4.9-5.3h3.5l-5.2,5.3L244,15.7z"></path>
	<path class="st0" d="M259,15.7h-3.4l-3.9-5.6l-1.3,1.3v4.3h-2.6V3h2.6v5.3l4.9-5.3h3.5l-5.2,5.3L259,15.7z"></path>
	<path class="st0" d="M271.5,10.2h-6.2v3.3h7.1v2.3h-9.7V3h9.4v2.3h-6.8v2.7h6.2V10.2z"></path>
	<path class="st0" d="M276.6,3h2.7v10.5h6.3v2.3h-9V3z"></path>
	<path class="st0" d="M294.3,13.9c0.6,0,1.1-0.1,1.5-0.2c0.7-0.3,1.1-0.8,1.1-1.5c0-0.4-0.2-0.7-0.6-1c-0.4-0.2-1-0.4-1.7-0.6   l-1.4-0.3c-1.3-0.3-2.2-0.6-2.8-1c-0.9-0.6-1.3-1.5-1.3-2.8c0-1.1,0.4-2.1,1.2-2.9c0.8-0.8,2.1-1.1,3.7-1.1c1.3,0,2.5,0.4,3.4,1.1   c1,0.7,1.4,1.7,1.5,3.1h-2.6c0-0.8-0.4-1.3-1-1.6c-0.4-0.2-0.9-0.3-1.6-0.3c-0.7,0-1.2,0.1-1.6,0.4c-0.4,0.3-0.6,0.7-0.6,1.2   c0,0.5,0.2,0.8,0.6,1c0.3,0.2,0.8,0.3,1.7,0.5l2.2,0.5c1,0.2,1.7,0.5,2.2,0.9c0.8,0.6,1.1,1.5,1.1,2.6c0,1.2-0.4,2.1-1.3,2.9   c-0.9,0.8-2.2,1.2-3.8,1.2c-1.7,0-3-0.4-3.9-1.1c-1-0.8-1.4-1.8-1.4-3.1h2.5c0.1,0.6,0.2,1,0.5,1.3   C292.5,13.6,293.2,13.9,294.3,13.9z"></path>
	<path class="st0" d="M312.5,10.2h-6.2v3.3h7.1v2.3h-9.7V3h9.4v2.3h-6.8v2.7h6.2V10.2z"></path>
	<path class="st0" d="M327.9,15.7h-2.7L320,6.7v9.1h-2.5V3h2.8l5.1,8.9V3h2.5V15.7z"></path>
</g>
<g>
	<path class="st0" d="M130.7,34.6l-0.5-0.5l1.3-1.3c-0.4-0.5-0.7-1.1-0.9-1.8c-0.2-0.7-0.3-1.3-0.3-2.1c0-1.5,0.4-2.8,1.2-3.8   c0.9-1.3,2.3-1.9,4-1.9c0.9,0,1.6,0.1,2.2,0.3c0.6,0.2,1.1,0.5,1.5,0.9l1.1-1.2l0.5,0.5l-1.2,1.3c0.3,0.3,0.5,0.8,0.8,1.3   c0.3,0.7,0.4,1.6,0.4,2.5c0,1.8-0.5,3.2-1.5,4.3c-1,1.1-2.2,1.6-3.8,1.6c-0.9,0-1.7-0.2-2.4-0.5c-0.4-0.2-0.8-0.5-1.2-0.9   L130.7,34.6z M137.3,24.9c-0.5-0.3-1.1-0.4-1.7-0.4c-1.1,0-2,0.4-2.7,1.2c-0.7,0.8-1,1.9-1,3.4c0,0.5,0,0.9,0.1,1.4   c0.1,0.5,0.3,0.9,0.5,1.3l5.7-6.2C137.9,25.2,137.6,25,137.3,24.9z M134,33.1c0.4,0.2,1,0.3,1.7,0.3c1.3,0,2.3-0.6,2.9-1.7   c0.5-0.8,0.7-1.8,0.7-2.9c0-0.6-0.1-1.2-0.3-1.8c-0.1-0.3-0.3-0.6-0.5-1l-5.7,6.3C133.3,32.6,133.6,32.9,134,33.1z"></path>
	<path class="st0" d="M145.5,30.8c0,0.6,0.2,1.1,0.4,1.5c0.5,0.7,1.3,1.1,2.5,1.1c0.5,0,1-0.1,1.5-0.2c0.8-0.3,1.3-0.9,1.3-1.6   c0-0.6-0.2-1-0.5-1.3c-0.4-0.2-0.9-0.5-1.7-0.6l-1.4-0.3c-0.9-0.2-1.6-0.5-2-0.7c-0.7-0.5-1-1.1-1-2c0-1,0.3-1.8,1-2.4   c0.7-0.6,1.6-0.9,2.8-0.9c1.1,0,2,0.3,2.8,0.8c0.8,0.5,1.2,1.4,1.2,2.6h-1.4c-0.1-0.6-0.2-1-0.5-1.3c-0.4-0.6-1.2-0.8-2.2-0.8   c-0.8,0-1.4,0.2-1.8,0.5c-0.4,0.4-0.5,0.8-0.5,1.3c0,0.5,0.2,0.9,0.6,1.2c0.3,0.2,0.9,0.4,1.9,0.6l1.5,0.3c0.7,0.2,1.3,0.4,1.6,0.7   c0.7,0.5,1,1.2,1,2.2c0,1.2-0.4,2.1-1.3,2.6s-1.8,0.8-3,0.8c-1.3,0-2.3-0.3-3.1-1c-0.7-0.7-1.1-1.6-1.1-2.8H145.5z"></path>
	<path class="st0" d="M164.5,23.5v1.3h-3.7v9.5h-1.5v-9.5h-3.7v-1.3H164.5z"></path>
	<path class="st0" d="M175,23.8c1.1,0.6,1.7,1.6,1.9,3h-1.5c-0.2-0.8-0.5-1.4-1.1-1.7c-0.5-0.4-1.2-0.5-2.1-0.5   c-1,0-1.8,0.4-2.5,1.1c-0.7,0.8-1,1.9-1,3.4c0,1.3,0.3,2.3,0.8,3.1c0.6,0.8,1.5,1.2,2.7,1.2c1,0,1.8-0.3,2.4-0.9   c0.6-0.6,1-1.5,1-2.8h-3.4v-1.2h4.8v5.8h-0.9l-0.4-1.4c-0.5,0.5-0.9,0.9-1.3,1.1c-0.6,0.4-1.4,0.5-2.4,0.5c-1.3,0-2.3-0.4-3.3-1.2   c-1-1-1.5-2.5-1.5-4.3c0-1.8,0.5-3.3,1.5-4.3c0.9-1,2.1-1.5,3.6-1.5C173.4,23.2,174.3,23.4,175,23.8z"></path>
	<path class="st0" d="M181.7,23.5h4.9c0.8,0,1.5,0.1,2,0.4c1,0.5,1.5,1.3,1.5,2.6c0,0.6-0.1,1.2-0.4,1.6c-0.3,0.4-0.6,0.7-1.1,1   c0.4,0.2,0.7,0.4,1,0.7c0.2,0.3,0.3,0.7,0.4,1.4l0.1,1.5c0,0.4,0,0.7,0.1,0.9c0.1,0.3,0.2,0.6,0.5,0.7v0.2h-1.8   c0-0.1-0.1-0.2-0.1-0.4c0-0.1-0.1-0.4-0.1-0.9l-0.1-1.8c0-0.7-0.3-1.2-0.8-1.4c-0.3-0.1-0.7-0.2-1.3-0.2h-3.2v4.6h-1.5V23.5z    M186.5,28.4c0.7,0,1.2-0.1,1.6-0.4c0.4-0.3,0.6-0.8,0.6-1.5c0-0.8-0.3-1.3-0.8-1.6c-0.3-0.1-0.7-0.2-1.2-0.2h-3.5v3.7H186.5z"></path>
	<path class="st0" d="M194.2,34.6l-0.5-0.5l1.3-1.3c-0.4-0.5-0.7-1.1-0.9-1.8c-0.2-0.7-0.3-1.3-0.3-2.1c0-1.5,0.4-2.8,1.2-3.8   c0.9-1.3,2.3-1.9,4-1.9c0.9,0,1.6,0.1,2.2,0.3c0.6,0.2,1.1,0.5,1.5,0.9l1.1-1.2l0.5,0.5l-1.2,1.3c0.3,0.3,0.5,0.8,0.8,1.3   c0.3,0.7,0.4,1.6,0.4,2.5c0,1.8-0.5,3.2-1.5,4.3c-1,1.1-2.2,1.6-3.8,1.6c-0.9,0-1.7-0.2-2.4-0.5c-0.4-0.2-0.8-0.5-1.2-0.9   L194.2,34.6z M200.9,24.9c-0.5-0.3-1.1-0.4-1.7-0.4c-1.1,0-2,0.4-2.7,1.2c-0.7,0.8-1,1.9-1,3.4c0,0.5,0,0.9,0.1,1.4   s0.3,0.9,0.5,1.3l5.7-6.2C201.4,25.2,201.1,25,200.9,24.9z M197.6,33.1c0.4,0.2,1,0.3,1.7,0.3c1.3,0,2.3-0.6,2.9-1.7   c0.5-0.8,0.7-1.8,0.7-2.9c0-0.6-0.1-1.2-0.3-1.8c-0.1-0.3-0.3-0.6-0.5-1l-5.7,6.3C196.8,32.6,197.2,32.9,197.6,33.1z"></path>
	<path class="st0" d="M208.1,23.5h1.7l5.4,8.8v-8.8h1.4v10.8H215l-5.5-8.7v8.7h-1.4V23.5z"></path>
	<path class="st0" d="M221,23.5h1.5V33h5.4v1.3H221V23.5z"></path>
	<path class="st0" d="M234.5,23.5h1.7l3.9,10.8h-1.6l-1.1-3.2h-4.3l-1.2,3.2h-1.5L234.5,23.5z M236.9,29.9l-1.6-4.8l-1.7,4.8H236.9z   "></path>
	<path class="st0" d="M243.4,23.5h1.7l5.4,8.8v-8.8h1.4v10.8h-1.7l-5.5-8.7v8.7h-1.4V23.5z"></path>
	<path class="st0" d="M256.4,23.5h4.3c1.5,0,2.6,0.5,3.4,1.6c0.7,1,1.1,2.2,1.1,3.7c0,1.2-0.2,2.2-0.6,3.1c-0.8,1.6-2,2.5-3.9,2.5   h-4.3V23.5z M260.4,33.1c0.5,0,0.9-0.1,1.2-0.2c0.6-0.2,1-0.6,1.4-1.1c0.3-0.4,0.5-1,0.6-1.7c0.1-0.4,0.1-0.8,0.1-1.1   c0-1.3-0.3-2.4-0.8-3.1c-0.5-0.7-1.4-1.1-2.5-1.1h-2.5v8.3H260.4z"></path>
	<path class="st0" d="M270.1,30.8c0,0.6,0.2,1.1,0.4,1.5c0.5,0.7,1.3,1.1,2.5,1.1c0.5,0,1-0.1,1.5-0.2c0.8-0.3,1.3-0.9,1.3-1.6   c0-0.6-0.2-1-0.5-1.3c-0.4-0.2-0.9-0.5-1.7-0.6l-1.4-0.3c-0.9-0.2-1.6-0.5-2-0.7c-0.7-0.5-1-1.1-1-2c0-1,0.3-1.8,1-2.4   c0.7-0.6,1.6-0.9,2.8-0.9c1.1,0,2,0.3,2.8,0.8c0.8,0.5,1.2,1.4,1.2,2.6h-1.4c-0.1-0.6-0.2-1-0.5-1.3c-0.4-0.6-1.2-0.8-2.2-0.8   c-0.8,0-1.4,0.2-1.8,0.5c-0.4,0.4-0.5,0.8-0.5,1.3c0,0.5,0.2,0.9,0.6,1.2c0.3,0.2,0.9,0.4,1.9,0.6l1.5,0.3c0.7,0.2,1.3,0.4,1.6,0.7   c0.7,0.5,1,1.2,1,2.2c0,1.2-0.4,2.1-1.3,2.6c-0.9,0.5-1.8,0.8-3,0.8c-1.3,0-2.3-0.3-3.1-1c-0.7-0.7-1.1-1.6-1.1-2.8H270.1z"></path>
	<path class="st0" d="M281.4,23.5h7.5v1.3h-6.1v3.3h5.3v1.3h-5.3v4.9h-1.5V23.5z"></path>
	<path class="st0" d="M301.4,25c0.7,1,1.1,2.2,1.1,3.7c0,1.6-0.4,3-1.2,4c-1,1.3-2.3,1.9-4.1,1.9c-1.7,0-3-0.6-3.9-1.7   c-0.9-1.1-1.3-2.4-1.3-4c0-1.5,0.4-2.7,1.1-3.8c0.9-1.3,2.3-2,4.1-2C299,23.2,300.4,23.8,301.4,25z M300.1,31.9   c0.6-0.9,0.9-2,0.9-3.2c0-1.3-0.3-2.3-1-3.1c-0.7-0.8-1.6-1.2-2.7-1.2c-1.1,0-2,0.4-2.7,1.2c-0.7,0.8-1.1,1.9-1.1,3.4   c0,1.2,0.3,2.2,0.9,3c0.6,0.8,1.6,1.2,3,1.2C298.5,33.3,299.5,32.9,300.1,31.9z"></path>
	<path class="st0" d="M306.2,23.5h1.7l5.4,8.8v-8.8h1.4v10.8H313l-5.5-8.7v8.7h-1.4V23.5z"></path>
	<path class="st0" d="M319.1,23.5h4.3c1.5,0,2.6,0.5,3.4,1.6c0.7,1,1.1,2.2,1.1,3.7c0,1.2-0.2,2.2-0.6,3.1c-0.8,1.6-2,2.5-3.9,2.5   h-4.3V23.5z M323.1,33.1c0.5,0,0.9-0.1,1.2-0.2c0.6-0.2,1-0.6,1.4-1.1c0.3-0.4,0.5-1,0.6-1.7c0.1-0.4,0.1-0.8,0.1-1.1   c0-1.3-0.3-2.4-0.8-3.1c-0.5-0.7-1.4-1.1-2.5-1.1h-2.5v8.3H323.1z"></path>
</g>
<g>
	<path class="st0" d="M1,1.4h23.9v5H6.8v8.7h16.7v4.7H6.8v9.7h18.4v5H1V1.4z"></path>
	<path class="st0" d="M34.5,1.4h8.2l9.2,26H52l8.9-26H69v33.2h-5.5V9h-0.1l-9.2,25.6h-4.8L40.2,9h-0.1v25.6h-5.5V1.4z"></path>
</g>
<path class="st0" d="M94,1c-9.6,0-17.3,7.8-17.3,17.3S84.5,35.6,94,35.6s17.3-7.8,17.3-17.3S103.6,1,94,1z M81.6,18.3  c0-6.9,5.6-12.4,12.4-12.4c3.5,0,6.7,1.5,9,3.9L85.5,27.3C83.1,25.1,81.6,21.9,81.6,18.3z"></path>
</svg>
